<svg height="24" viewBox="0 0 24 24" width="24" xmlns="http://www.w3.org/2000/svg">
  <g transform="translate(0 -8)" id="g4">
    <path
       d="m 5.5,9.5 13,0 c 2.216,0 4.019851,1.784089 4,4 l -0.07191,8.026913 c -0.01985,2.215911 -1.784,4 -4,4 l -6,0 c 0,2 -2.5000002,5 -6.0000002,5 2.5,-1.443376 2.0594341,-2.769793 2,-5 l -3,0 c -2.216,0 -4.0198512,-1.784089 -4,-4 L 1.5,13.5 c 0.019851,-2.215911 1.784,-4 4,-4 z"
       id="path8"
       style="fill:#f9ee94;fill-rule:evenodd;overflow:visible" />
    <path
       d="M 2.4280908,23.667367 2.5,13 C 2.5067409,12.000023 4,10.5 5,10.5 l 16,0"
       id="path10"
       style="fill:none;stroke:#fcf7ea" />
    <path
       d="m 5.5,9.5 13,0 c 2.216,0 4.019675,1.784087 4,4 l -0.07191,8.098822 c -0.01967,2.215913 -1.784,4 -4,4 l -6,0 c 0,2 -2.5000002,5 -6.0000002,5 2.5,-1.443376 2.0594341,-2.769793 2,-5 l -3,0 c -2.216,0 -4.019675,-1.784087 -4,-4 L 1.5,13.5 c 0.019675,-2.215913 1.784,-4 4,-4 z"
       id="path12"
       style="fill:none;stroke:#cba909;stroke-linecap:round;stroke-linejoin:round;overflow:visible" />
  </g>
  <g transform="matrix(0.04645097,0,0,0.04645097,2.1951143,0.06637549)" id="g11">
    <path
       d="m 244.087,136.653 c -1.066,4.434 -20.398,85.254 -22.799,94.755 -2.4,9.502 -4.668,18.506 -6.807,27.011 0,0 -1.111,5.366 -6.923,5.366 h -1.752 c -5.812,0 -6.923,-5.366 -6.923,-5.366 -2.139,-8.505 -4.406,-17.509 -6.807,-27.011 -2.4,-9.501 -21.729,-90.321 -22.798,-94.755 -13.697,-56.799 88.888,-58.37 74.809,0 z"
       id="path13"
       style="fill:#4d4d4d" />
    <circle
       cx="206.717"
       cy="308.54599"
       r="24.256001"
       id="circle15"
       style="fill:#4d4d4d" />
  </g>
</svg>
